<?xml version='1.0' encoding='utf-8'?>
<!-- Generator: imaengine 6.0   -->
<svg xmlns:xlink="http://www.w3.org/1999/xlink" xmlns="http://www.w3.org/2000/svg" viewBox="0,0,480,480" style="enable-background:new 0 0 480 480;" version="1.1">
<defs/>
<g id="layer0">
<path d="M353.652,7.3125C343.902,-2.4375 328.094,-2.4375 318.34,7.3125C308.59,17.0664 308.59,32.875 318.34,42.625L324.684,48.9688L188.684,184.969L113.934,184.969C105.449,184.992 97.3203,188.363 91.3086,194.344C78.8164,206.84 78.8164,227.098 91.3086,239.594L148.684,296.969L33.6602,411.992C17.375,428.281 5.82422,448.688 0.238281,471.035C-0.441406,473.758 0.359375,476.637 2.34375,478.625C4.32813,480.609 7.20703,481.406 9.93359,480.73C32.2773,475.145 52.6836,463.59 68.9727,447.305L183.996,332.281L241.375,389.656C253.867,402.148 274.125,402.148 286.621,389.656C292.605,383.645 295.973,375.516 295.996,367.035L295.996,292.281L431.996,156.281L438.34,162.625C448.094,172.375 463.902,172.375 473.652,162.625C483.402,152.875 483.402,137.066 473.652,127.313L353.652,7.3125ZM57.6523,435.992C47.0273,446.621 34.3516,454.984 20.3984,460.57C25.9844,446.613 34.3437,433.934 44.9727,423.305L159.996,308.281L172.684,320.969L57.6523,435.992ZM462.34,151.312C458.793,154.703 453.203,154.703 449.652,151.312L437.652,139.312C434.527,136.191 429.465,136.191 426.34,139.312L282.34,283.312C280.84,284.812 279.996,286.848 279.996,288.969L279.996,367.035C279.984,371.273 278.297,375.34 275.309,378.344C268.973,384.375 259.02,384.375 252.684,378.344L102.621,228.281C96.375,222.035 96.375,211.906 102.621,205.656C105.629,202.668 109.691,200.984 113.934,200.969L191.996,200.969C194.117,200.969 196.152,200.125 197.652,198.625L341.652,54.625C344.777,51.5 344.777,46.4375 341.652,43.3125L329.652,31.3125C326.156,27.8086 326.156,22.1328 329.652,18.625C333.203,15.2344 338.793,15.2344 342.34,18.625L462.34,138.625C465.84,142.133 465.84,147.809 462.34,151.312L462.34,151.312Z" fill="#000000"/>
</g>
</svg>
