<svg width="470" height="470" xmlns="http://www.w3.org/2000/svg">

 <g>
  <title>background</title>
  <rect fill="none" id="canvas_background" height="602" width="802" y="-1" x="-1"/>
 </g>
 <g>
  <title>Layer 1</title>
  <g id="svg_1">
   <path id="svg_2" d="m462.5,22.5l-455,0c-4.143,0 -7.5,3.358 -7.5,7.5l0,410c0,4.142 3.357,7.5 7.5,7.5l455,0c4.143,0 7.5,-3.358 7.5,-7.5l0,-80c0,-4.142 -3.357,-7.5 -7.5,-7.5s-7.5,3.358 -7.5,7.5l0,72.5l-440,0l0,-335l440,0l0,232.5c0,4.142 3.357,7.5 7.5,7.5s7.5,-3.358 7.5,-7.5l0,-300c0,-4.142 -3.357,-7.5 -7.5,-7.5zm-447.5,15l277.5,0l0,45l-277.5,0l0,-45zm292.5,45l0,-45l147.5,0l0,45l-147.5,0z"/>
   <path id="svg_3" d="m381.5,52c-4.411,0 -8,3.589 -8,8s3.589,8 8,8s8,-3.589 8,-8s-3.589,-8 -8,-8z"/>
   <path id="svg_4" d="m340.5,52c-4.411,0 -8,3.589 -8,8s3.589,8 8,8s8,-3.589 8,-8s-3.589,-8 -8,-8z"/>
   <path id="svg_5" d="m422.5,52c-4.411,0 -8,3.589 -8,8s3.589,8 8,8s8,-3.589 8,-8s-3.589,-8 -8,-8z"/>
   <path id="svg_6" d="m269.745,328.458c0,1.989 0.79,3.897 2.196,5.303l58.543,58.542c1.407,1.407 3.314,2.197 5.304,2.197s3.896,-0.79 5.304,-2.197l21.213,-21.213c2.929,-2.929 2.929,-7.678 0,-10.606l-58.542,-58.542c-2.929,-2.929 -7.677,-2.929 -10.607,0l-5.303,5.303l-10.831,-10.831c32.824,-38.264 31.15,-96.129 -5.079,-132.358c-18.416,-18.416 -42.9,-28.557 -68.943,-28.557s-50.527,10.142 -68.943,28.557c-38.015,38.015 -38.015,99.871 0,137.886c18.416,18.416 42.9,28.557 68.943,28.557c23.527,0 45.78,-8.279 63.438,-23.455l10.807,10.808l-5.303,5.303c-1.407,1.407 -2.197,3.314 -2.197,5.303zm-125.082,-37.123c-32.167,-32.167 -32.167,-84.506 0,-116.673c15.582,-15.582 36.3,-24.164 58.336,-24.164s42.754,8.582 58.336,24.164c32.167,32.167 32.167,84.506 0,116.673c-15.582,15.582 -36.3,24.164 -58.336,24.164s-42.754,-8.582 -58.336,-24.164zm201.732,74.453l-10.606,10.607l-47.937,-47.936l5.301,-5.301c0.005,-0.005 5.306,-5.306 5.306,-5.306l47.936,47.936z"/>
   <path id="svg_7" d="m250.729,185.27c-12.75,-12.749 -29.7,-19.771 -47.73,-19.771s-34.98,7.021 -47.73,19.771c-26.317,26.318 -26.317,69.141 0,95.459c12.75,12.749 29.7,19.771 47.73,19.771s34.98,-7.021 47.73,-19.771c26.318,-26.318 26.318,-69.142 0,-95.459zm-10.607,84.852c-9.916,9.916 -23.1,15.377 -37.123,15.377s-27.207,-5.461 -37.123,-15.377c-20.47,-20.47 -20.47,-53.776 0,-74.246c9.916,-9.916 23.1,-15.377 37.123,-15.377s27.207,5.461 37.123,15.377c20.47,20.47 20.47,53.776 0,74.246z"/>
  </g>
  <rect id="svg_9" height="45.99905" width="276.99428" y="36.99924" x="15.50453" stroke-width="1.5" stroke="#000" fill="#09ef4a"/>
  <rect stroke="#000" transform="rotate(-45 317.57388305664057,346.7308044433593) " id="svg_10" height="67.25556" width="15.54335" y="313.10302" x="309.80225" stroke-width="1.5" fill="#09ef4a"/>
  <ellipse stroke="#09ef4a" transform="rotate(0.40170958638191223 202.99999999999548,232.82641601562437) " ry="75" rx="75" id="svg_11" cy="232.82642" cx="203" stroke-width="15" fill="none"/>
 </g>
</svg>