<svg width="800" height="600" xmlns="http://www.w3.org/2000/svg" stroke="null" style="vector-effect: non-scaling-stroke;">
 <!-- Created with Method Draw - http://github.com/duopixel/Method-Draw/ -->
 <g>
  <title>background</title>
  <rect fill="#fff" id="canvas_background" height="602" width="802" y="-1" x="-1"/>
 </g>
 <g>
  <title>Layer 1</title>
  <path stroke="null" id="svg_1" d="m40.03835,16.4017c2.559,0.00309 5.00365,0.42684 7.31886,1.13475l-1.83232,3.03075l13.00648,0l-3.25245,-5.38695l-3.24997,-5.38534l-1.71081,2.83773c-3.20633,-1.12108 -6.66287,-1.74851 -10.27746,-1.74851c-16.63768,0 -30.12303,12.89765 -30.12303,28.80918c0,6.60381 2.34854,12.67126 6.25703,17.53252l4.58036,-3.36332c-3.16108,-3.92857 -5.06169,-8.83088 -5.072,-14.16762c0.02302,-12.86426 10.90568,-23.27347 24.35531,-23.2932l0,0zm23.86918,5.76516l-4.58035,3.36493c3.16028,3.92708 5.0609,8.82629 5.0696,14.16462c-0.02303,12.86415 -10.90568,23.27188 -24.35609,23.29308c-2.38349,-0.00295 -4.66376,-0.37359 -6.83758,-0.99345l1.72427,-2.85148l-13.00642,0l3.25005,5.38397l3.25239,5.3914l1.81326,-3.00939c3.07527,1.02385 6.36657,1.59506 9.80404,1.59654c16.64008,-0.00297 30.12312,-12.90063 30.12703,-28.81217c-0.00391,-6.60379 -2.35412,-12.66976 -6.26019,-17.52804l0,0z" stroke-opacity="null" stroke-width="20" fill="#000000"/>
 </g>
</svg>