<?xml version="1.0" encoding="UTF-8" standalone="no"?>
<!DOCTYPE svg PUBLIC "-//W3C//DTD SVG 1.1//EN" "http://www.w3.org/Graphics/SVG/1.1/DTD/svg11.dtd">
<svg version="1.1" xmlns="http://www.w3.org/2000/svg" xmlns:xlink="http://www.w3.org/1999/xlink" preserveAspectRatio="xMidYMid meet" viewBox="0 0 640 640" width="640" height="640"><defs><path d="M801 -1C801 -1 801 -1 801 -1C801 360.2 801 560.87 801 601C801 601 801 601 801 601C319.8 601 52.47 601 -1 601C-1 601 -1 601 -1 601C-1 239.8 -1 39.13 -1 -1C-1 -1 -1 -1 -1 -1C480.2 -1 747.53 -1 801 -1Z" id="azSEbfyPr"></path><path d="M370.41 84.68C369.24 86.63 363.36 96.37 352.77 113.92L477.98 113.92L446.67 61.95L415.39 10C405.5 26.42 400.02 35.55 398.92 37.37C368.05 26.56 334.78 20.51 299.98 20.51C139.82 20.51 10 144.93 10 298.42C10 362.12 32.61 420.65 70.23 467.55C74.64 464.3 109.92 438.35 114.33 435.1C83.9 397.2 65.6 349.91 65.5 298.43C65.72 174.34 170.48 73.92 299.96 73.73C299.96 73.73 299.96 73.73 299.96 73.73C332.07 76.48 355.56 80.13 370.41 84.68ZM485.64 161.81C516.07 199.69 534.36 246.95 534.45 298.45C534.22 422.54 429.46 522.94 299.98 523.15C277.04 523.12 255.08 519.54 234.16 513.56C235.27 511.73 240.8 502.56 250.76 486.05L125.55 486.05L156.84 537.99L188.15 590C198.62 572.58 204.44 562.91 205.6 560.97C235.21 570.85 266.89 576.36 299.98 576.37C460.17 576.34 589.96 451.92 590 298.43C589.96 234.73 567.34 176.21 529.74 129.35C529.74 129.35 529.74 129.35 529.74 129.35C503.28 148.82 488.58 159.64 485.64 161.81Z" id="bxNseIFSq"></path></defs><g><g><g><use xlink:href="#azSEbfyPr" opacity="1" fill="#000000" fill-opacity="0"></use><g><use xlink:href="#azSEbfyPr" opacity="1" fill-opacity="0" stroke="#ffffff" stroke-width="1" stroke-opacity="1"></use></g></g><g><use xlink:href="#bxNseIFSq" opacity="1" fill="#ffffff" fill-opacity="1"></use><g><use xlink:href="#bxNseIFSq" opacity="1" fill-opacity="0" stroke="#000000" stroke-width="20" stroke-opacity="1"></use></g></g></g></g></svg>